Coordinates
version=1
nRows=13
nColumns=40
inDegrees=yes

Units are S.I. units (second, meters, Newtons, ...)
Angles are in degrees.

endheader
time	pelvis_tilt	pelvis_list	pelvis_rotation	pelvis_tx	pelvis_ty	pelvis_tz	hip_flexion_r	hip_adduction_r	hip_rotation_r	knee_angle_r	knee_angle_r_beta	ankle_angle_r	subtalar_angle_r	mtp_angle_r	hip_flexion_l	hip_adduction_l	hip_rotation_l	knee_angle_l	knee_angle_l_beta	ankle_angle_l	subtalar_angle_l	mtp_angle_l	lumbar_extension	lumbar_bending	lumbar_rotation	arm_flex_r	arm_add_r	arm_rot_r	elbow_flex_r	pro_sup_r	wrist_flex_r	wrist_dev_r	arm_flex_l	arm_add_l	arm_rot_l	elbow_flex_l	pro_sup_l	wrist_flex_l	wrist_dev_l
     38.76000000	     -1.10418790	     -3.13969535	     -0.10223773	      1.11831668	      0.93241591	      0.46086179	     30.57592640	     -7.81771983	     -4.78539443	     68.59118443	     68.59118443	     -2.64894744	    -18.10920205	      6.91060366	     13.76955245	     -3.21873327	     -5.15989623	     23.96247137	     23.96247137	     13.71613165	    -12.83553550	      2.23739424	    -11.78855569	      4.48878723	      0.93277694	     -0.47921883	    -14.28061630	    -11.36676005	     30.82288355	     46.21415483	      0.00000000	      0.00000000	      9.50796003	    -14.85439603	     -5.01766080	     50.46314364	     46.67041581	      0.00000000	      0.00000000
     38.77350000	     -1.39674516	     -3.39933675	     -0.43304546	      1.11691030	      0.93307835	      0.46082637	     31.37490627	     -7.38335344	     -5.08034200	     66.42222886	     66.42222886	     -2.20109160	    -18.02067067	      6.77195640	     13.46592395	     -3.45088151	     -5.19203957	     23.45259832	     23.45259832	     13.77514593	    -13.08222653	      2.32001442	    -11.56018637	      4.78628713	      0.74212829	     -1.01207531	    -14.35328083	    -11.36915446	     30.45190766	     46.22576241	      0.00000000	      0.00000000	      9.93637731	    -14.92166388	     -5.02662891	     50.81749036	     46.68119653	      0.00000000	      0.00000000
     38.78700000	     -1.41219155	     -3.46979679	     -0.86646958	      1.11565940	      0.93411129	      0.46083288	     31.68406887	     -7.09185832	     -5.23990916	     63.88668834	     63.88668834	     -2.44295116	    -17.99171852	      4.53017045	     12.63626004	     -3.46853017	     -5.39909149	     22.54912881	     22.54912881	     13.41960200	    -13.43584347	      1.62743864	    -11.68303897	      4.80566167	      0.72267052	     -1.06164342	    -14.37032043	    -11.48825993	     28.88184765	     46.30273857	      0.00000000	      0.00000000	     10.20465971	    -15.22541930	     -4.45504382	     52.11805604	     46.67009367	      0.00000000	      0.00000000
     38.80050000	     -1.53742699	     -3.60099743	     -1.27539421	      1.11438318	      0.93491793	      0.46093217	     32.05725538	     -6.66618757	     -5.37743234	     61.24736405	     61.24736405	     -2.02648431	    -17.65148093	      4.54896800	     12.04500971	     -3.60522838	     -5.72867299	     21.88240094	     21.88240094	     13.50385013	    -13.34675461	      1.69905789	    -11.69742992	      4.92973293	      0.63489781	     -1.50539395	    -14.41207357	    -11.50518919	     28.58480086	     46.31320244	      0.00000000	      0.00000000	     10.66647404	    -15.34757413	     -4.48984007	     52.52092569	     46.68467128	      0.00000000	      0.00000000
     38.81400000	     -1.62101322	     -3.69634446	     -1.72423478	      1.11318218	      0.93566436	      0.46119722	     32.26210970	     -6.22506141	     -5.45976169	     58.35301578	     58.35301578	     -1.66901396	    -17.07967852	      4.48223706	     11.39366298	     -3.70817998	     -6.09525607	     21.20247948	     21.20247948	     13.59497410	    -13.23686848	      1.71304335	    -11.73382209	      4.99508425	      0.65545906	     -1.91343451	    -14.45290677	    -11.52012749	     28.23439907	     46.32638994	      0.00000000	      0.00000000	     11.13850862	    -15.46962892	     -4.48634204	     53.04693637	     46.69740680	      0.00000000	      0.00000000
     38.82750000	     -1.64163776	     -3.75097967	     -2.18563098	      1.11206568	      0.93637214	      0.46156722	     32.26785788	     -5.82458354	     -5.55424247	     55.19034339	     55.19034339	     -1.34855914	    -16.24479686	      4.21710141	     10.66584015	     -3.77622353	     -6.54452663	     20.50983252	     20.50983252	     13.63721194	    -13.09472551	      1.65003002	    -11.86057216	      5.00223033	      0.74694210	     -2.26525267	    -14.51665448	    -11.54985602	     27.81836619	     46.34451297	      0.00000000	      0.00000000	     11.56911032	    -15.55426257	     -4.40662128	     53.72155125	     46.70560223	      0.00000000	      0.00000000
     38.84100000	     -1.71091888	     -3.74924008	     -2.66966174	      1.11095993	      0.93673637	      0.46206581	     32.10894651	     -5.47110148	     -5.65509312	     51.55369404	     51.55369404	     -2.06230101	    -15.56676790	      0.67504446	      9.97008769	     -3.78444393	     -7.02102998	     19.74202342	     19.74202342	     13.26978690	    -13.11495186	      0.40593228	    -11.97481607	      4.90149046	      0.63685278	     -2.02659127	    -14.41797872	    -11.99578359	     26.53300391	     46.44421332	      0.00000000	      0.00000000	     11.37610326	    -16.17219760	     -3.55437712	     55.60500411	     46.68365315	      0.00000000	      0.00000000
     38.85450000	     -1.83576687	     -3.77421505	     -3.12176775	      1.10984192	      0.93695044	      0.46265819	     31.98033428	     -5.08564003	     -5.79712973	     47.87989341	     47.87989341	     -1.61963177	    -14.01806825	      0.50717840	      9.45682902	     -3.82558322	     -7.41171825	     19.22250921	     19.22250921	     13.38762850	    -13.03913452	      0.38629084	    -12.00117838	      4.89468071	      0.65695668	     -2.24867041	    -14.43573157	    -12.04930180	     26.38038761	     46.45393893	      0.00000000	      0.00000000	     11.76539291	    -16.23838406	     -3.61587488	     55.91486423	     46.70054288	      0.00000000	      0.00000000
     38.86800000	     -1.97845172	     -3.74206353	     -3.59289837	      1.10880676	      0.93693899	      0.46338895	     31.63776417	     -4.76199522	     -6.02504342	     43.73783073	     43.73783073	     -2.04637345	    -12.48566682	     -2.31037173	      8.93477633	     -3.82201585	     -7.90068522	     18.64296522	     18.64296522	     13.26613320	    -12.96466013	     -0.32582289	    -12.01646904	      4.80562845	      0.66391071	     -2.29475056	    -14.34181828	    -12.55162323	     26.07848921	     46.51274360	      0.00000000	      0.00000000	     11.89900423	    -16.44138199	     -3.50644487	     56.76324331	     46.73825592	      0.00000000	      0.00000000
     38.88150000	     -2.21677496	     -3.77733355	     -4.02673755	      1.10773411	      0.93671139	      0.46422339	     31.32921728	     -4.32042210	     -6.27111580	     39.55878016	     39.55878016	     -1.58106143	    -10.42435171	     -2.20902027	      8.62341432	     -3.89973241	     -8.26812070	     18.27715073	     18.27715073	     13.42330257	    -12.93189967	     -0.39004496	    -11.91277006	      4.87611945	      0.67692150	     -2.39389260	    -14.30055695	    -12.57429076	     26.03840731	     46.51556698	      0.00000000	      0.00000000	     12.16262609	    -16.50946966	     -3.50923033	     57.01775011	     46.74706056	      0.00000000	      0.00000000
     38.89500000	     -2.32311069	     -3.70056708	     -4.43394809	      1.10683565	      0.93648781	      0.46512772	     30.73821517	     -4.06355118	     -6.71748206	     35.25258036	     35.25258036	     -1.10099066	     -7.74025388	     -2.30639121	      8.16388743	     -3.86219994	     -8.73844642	     17.90596129	     17.90596129	     13.58197611	    -12.75000019	     -0.61222000	    -11.97149066	      4.75309271	      0.73136888	     -2.42673970	    -14.26488082	    -12.62257179	     26.04374242	     46.51921947	      0.00000000	      0.00000000	     12.41724592	    -16.59870323	     -3.48381671	     57.38312672	     46.75639746	      0.00000000	      0.00000000
     38.90850000	     -2.59941417	     -3.67733072	     -4.82941985	      1.10599667	      0.93592945	      0.46627087	     30.18390420	     -3.63963391	     -7.11170329	     30.84938719	     30.84938719	     -0.75946303	     -5.33055451	     -2.05211213	      7.90967680	     -3.90646539	     -9.11124488	     17.58592656	     17.58592656	     13.72749795	    -12.64377444	     -0.83804775	    -11.80637334	      4.68513891	      0.73824883	     -2.42917726	    -14.14673068	    -12.65323742	     26.10539145	     46.51868916	      0.00000000	      0.00000000	     12.54864932	    -16.67265490	     -3.43795770	     57.65494190	     46.76056612	      0.00000000	      0.00000000
     38.92200000	     -2.77793779	     -3.60436926	     -5.17567758	      1.10540367	      0.93536664	      0.46744415	     29.41188538	     -3.30246578	     -7.67952682	     26.53222431	     26.53222431	     -0.45610070	     -2.75017968	     -1.59405376	      7.55626963	     -3.89593741	     -9.50940429	     17.29622894	     17.29622894	     13.87733479	    -12.47144565	     -1.14033591	    -11.73889577	      4.58942617	      0.72932541	     -2.37927918	    -14.02253862	    -12.68584236	     26.22105052	     46.51626957	      0.00000000	      0.00000000	     12.65155808	    -16.75590596	     -3.38313048	     57.90213095	     46.76349448	      0.00000000	      0.00000000
